<svg data-v-423bf9ae="" xmlns="http://www.w3.org/2000/svg" viewBox="0 0 744 90" class="iconLeft"><!----><!----><!----><g data-v-423bf9ae="" id="e2cb889a-5dfb-4fdc-83b5-17ea3ba07a5c" fill="#000000" transform="matrix(6.033980616510924,0,0,6.033980616510924,112.05956952630066,-3.8037889067545336)"><path d="M4.27 3.12L4.27 3.12Q4.70 3.12 5.04 3.18Q5.38 3.23 5.61 3.30L5.61 3.30Q5.88 3.39 6.10 3.49L6.10 3.49L6.10 4.82Q5.56 4.65 4.92 4.59Q4.28 4.54 3.74 4.74Q3.19 4.94 2.83 5.45Q2.46 5.95 2.46 6.89L2.46 6.89Q2.46 7.87 2.83 8.38Q3.19 8.89 3.74 9.06Q4.28 9.24 4.92 9.15Q5.56 9.06 6.10 8.85L6.10 8.85L6.10 10.23Q5.89 10.36 5.61 10.44L5.61 10.44Q5.38 10.53 5.03 10.59Q4.69 10.65 4.26 10.65L4.26 10.65Q3.71 10.65 3.05 10.51Q2.39 10.37 1.83 9.97Q1.26 9.56 0.88 8.83Q0.50 8.09 0.50 6.89L0.50 6.89Q0.50 5.70 0.88 4.96Q1.26 4.21 1.83 3.81Q2.39 3.40 3.05 3.26Q3.71 3.12 4.27 3.12ZM10.71 3.12L10.71 3.12Q11.27 3.12 11.93 3.29Q12.59 3.46 13.16 3.88Q13.73 4.30 14.12 5.03Q14.50 5.75 14.50 6.89L14.50 6.89Q14.50 8.02 14.12 8.75Q13.73 9.48 13.16 9.90Q12.59 10.32 11.93 10.49Q11.27 10.65 10.71 10.65L10.71 10.65Q10.15 10.65 9.49 10.49Q8.83 10.32 8.27 9.90Q7.70 9.48 7.32 8.75Q6.94 8.02 6.94 6.89L6.94 6.89Q6.94 5.75 7.32 5.03Q7.70 4.30 8.27 3.88Q8.83 3.46 9.49 3.29Q10.15 3.12 10.71 3.12ZM10.71 9.25L10.71 9.25Q11.49 9.25 12.02 8.64Q12.54 8.02 12.54 6.89L12.54 6.89Q12.54 5.75 12.02 5.14Q11.49 4.54 10.71 4.54L10.71 4.54Q9.95 4.54 9.44 5.14Q8.92 5.75 8.92 6.89L8.92 6.89Q8.92 7.45 9.06 7.89Q9.20 8.33 9.44 8.63Q9.67 8.93 10.00 9.09Q10.33 9.25 10.71 9.25ZM20.24 3.12L20.24 3.12Q20.89 3.12 21.35 3.34Q21.81 3.56 22.11 3.93Q22.41 4.31 22.55 4.83Q22.69 5.35 22.69 5.95L22.69 5.95L22.69 10.50L20.82 10.50L20.82 6.58Q20.82 5.54 20.54 5.05Q20.26 4.56 19.57 4.56L19.57 4.56Q18.75 4.56 18.35 5.25Q17.95 5.94 17.95 7.06L17.95 7.06L17.95 10.50L16.07 10.50L16.07 3.29L17.47 3.29L17.85 4.27Q17.99 4.12 18.16 3.91Q18.33 3.71 18.59 3.54Q18.84 3.36 19.24 3.24Q19.64 3.12 20.24 3.12ZM29.27 3.29L31.12 3.29L28.46 10.50L26.35 10.50L23.67 3.29L25.52 3.29L27.41 8.54L29.27 3.29ZM29.27 3.29L31.12 3.29L28.46 10.50L26.35 10.50L23.67 3.29L25.52 3.29L27.41 8.54L29.27 3.29ZM35.74 10.65L35.74 10.65Q34.58 10.65 33.82 10.35Q33.07 10.04 32.61 9.52Q32.16 9.00 31.98 8.32Q31.79 7.64 31.79 6.89L31.79 6.89Q31.79 6.22 31.98 5.54Q32.16 4.87 32.56 4.33Q32.96 3.79 33.60 3.46Q34.24 3.12 35.17 3.12L35.17 3.12Q36.15 3.12 36.80 3.46Q37.45 3.79 37.84 4.33Q38.23 4.87 38.39 5.54Q38.56 6.22 38.56 6.89L38.56 6.89L38.56 7.52L33.60 7.52Q33.60 8.27 34.14 8.76Q34.68 9.25 35.62 9.25L35.62 9.25Q36.15 9.25 36.60 9.14Q37.04 9.03 37.37 8.89L37.37 8.89Q37.73 8.74 38.04 8.53L38.04 8.53L38.04 10.09Q38.04 10.11 37.86 10.19Q37.67 10.28 37.37 10.38Q37.06 10.49 36.64 10.57Q36.22 10.65 35.74 10.65ZM33.60 6.19L36.78 6.19Q36.78 5.95 36.71 5.66Q36.65 5.38 36.48 5.12Q36.30 4.87 35.99 4.70Q35.67 4.54 35.17 4.54L35.17 4.54Q34.73 4.54 34.43 4.70Q34.13 4.87 33.95 5.12Q33.77 5.38 33.68 5.66Q33.60 5.95 33.60 6.19L33.60 6.19ZM44.65 3.29L46.70 3.29L43.99 10.32Q43.97 10.35 43.89 10.56Q43.81 10.78 43.62 11.09Q43.44 11.40 43.16 11.74Q42.88 12.08 42.48 12.38Q42.08 12.67 41.56 12.87Q41.03 13.06 40.38 13.06L40.38 13.06L40.38 11.45Q40.78 11.45 41.08 11.28Q41.37 11.10 41.57 10.89L41.57 10.89Q41.79 10.64 41.94 10.32L41.94 10.32L39.21 3.29L41.29 3.29L43.05 8.54L44.65 3.29ZM56.08 3.12L56.08 3.12Q56.84 3.12 57.30 3.39Q57.75 3.65 57.99 4.09Q58.23 4.52 58.30 5.08Q58.38 5.64 58.38 6.24L58.38 6.24L58.38 10.50L56.50 10.50L56.50 10.49L56.49 6.19Q56.49 5.84 56.45 5.54Q56.41 5.25 56.29 5.04Q56.17 4.83 55.96 4.71Q55.75 4.59 55.43 4.59L55.43 4.59Q55.01 4.59 54.73 4.79Q54.45 4.98 54.29 5.29Q54.14 5.59 54.08 5.94Q54.01 6.29 54.01 6.59L54.01 6.59L54.01 10.50L52.16 10.50L52.16 10.49L52.15 10.49L52.15 6.19Q52.15 5.84 52.10 5.54Q52.05 5.25 51.93 5.03Q51.80 4.82 51.58 4.70Q51.35 4.58 51.00 4.58L51.00 4.58Q50.61 4.58 50.36 4.77Q50.11 4.97 49.95 5.27Q49.80 5.57 49.74 5.93Q49.67 6.29 49.67 6.59L49.67 6.59L49.67 10.50L47.80 10.50L47.80 3.29L49.21 3.29L49.52 4.40Q49.52 4.40 49.64 4.20Q49.77 4.00 50.02 3.77Q50.27 3.53 50.66 3.33Q51.04 3.12 51.58 3.12L51.58 3.12Q52.28 3.12 52.71 3.32Q53.14 3.51 53.40 3.75L53.40 3.75Q53.69 4.03 53.83 4.38L53.83 4.38Q53.86 4.34 53.98 4.14Q54.11 3.95 54.38 3.72Q54.64 3.49 55.06 3.30Q55.48 3.12 56.08 3.12ZM63.04 3.12L63.04 3.12Q63.50 3.12 64.04 3.27Q64.57 3.42 65.03 3.75Q65.49 4.07 65.79 4.59Q66.08 5.11 66.07 5.85L66.07 5.85L66.07 10.50L64.69 10.50Q64.69 10.50 64.65 10.33Q64.61 10.16 64.56 9.95Q64.51 9.74 64.47 9.58Q64.43 9.42 64.43 9.44L64.43 9.44Q64.23 9.79 63.91 10.05L63.91 10.05Q63.63 10.29 63.19 10.47Q62.75 10.65 62.10 10.65L62.10 10.65Q61.66 10.65 61.22 10.52Q60.79 10.39 60.45 10.13Q60.10 9.87 59.89 9.48Q59.67 9.09 59.65 8.57L59.65 8.57Q59.63 8.02 59.80 7.59Q59.98 7.17 60.31 6.86Q60.63 6.55 61.10 6.36Q61.56 6.17 62.10 6.10L62.10 6.10Q62.62 6.03 63.24 6.03Q63.85 6.03 64.34 6.06L64.34 6.06L64.34 5.84Q64.34 5.24 64.08 4.93Q63.81 4.63 63.41 4.54Q63.01 4.45 62.54 4.52Q62.06 4.59 61.63 4.72Q61.19 4.86 60.87 5.00Q60.54 5.15 60.45 5.22L60.45 5.22L60.45 3.81Q60.47 3.79 60.70 3.69Q60.94 3.58 61.31 3.46Q61.67 3.33 62.13 3.23Q62.58 3.12 63.04 3.12ZM63.94 8.68L63.94 8.68Q64.18 8.37 64.25 7.99Q64.33 7.62 64.33 7.20L64.33 7.20L63.52 7.20Q63.20 7.20 62.83 7.24Q62.47 7.28 62.16 7.41Q61.85 7.53 61.64 7.78Q61.43 8.02 61.43 8.44L61.43 8.44Q61.43 8.90 61.78 9.11Q62.12 9.32 62.62 9.32L62.62 9.32Q63.06 9.32 63.39 9.15Q63.71 8.97 63.94 8.68ZM72.09 3.12L72.09 3.12Q72.73 3.12 73.19 3.34Q73.65 3.56 73.96 3.93Q74.26 4.31 74.40 4.83Q74.54 5.35 74.54 5.95L74.54 5.95L74.54 10.50L72.66 10.50L72.66 6.58Q72.66 5.54 72.38 5.05Q72.10 4.56 71.41 4.56L71.41 4.56Q70.59 4.56 70.19 5.25Q69.79 5.94 69.79 7.06L69.79 7.06L69.79 10.50L67.91 10.50L67.91 3.29L69.31 3.29L69.69 4.27Q69.83 4.12 70.00 3.91Q70.17 3.71 70.43 3.54Q70.69 3.36 71.09 3.24Q71.48 3.12 72.09 3.12ZM79.07 3.12L79.07 3.12Q79.53 3.12 80.07 3.27Q80.60 3.42 81.06 3.75Q81.52 4.07 81.82 4.59Q82.11 5.11 82.10 5.85L82.10 5.85L82.10 10.50L80.72 10.50Q80.72 10.50 80.68 10.33Q80.64 10.16 80.59 9.95Q80.54 9.74 80.50 9.58Q80.46 9.42 80.46 9.44L80.46 9.44Q80.26 9.79 79.94 10.05L79.94 10.05Q79.66 10.29 79.22 10.47Q78.78 10.65 78.13 10.65L78.13 10.65Q77.69 10.65 77.25 10.52Q76.82 10.39 76.48 10.13Q76.13 9.87 75.92 9.48Q75.70 9.09 75.68 8.57L75.68 8.57Q75.66 8.02 75.83 7.59Q76.01 7.17 76.34 6.86Q76.66 6.55 77.13 6.36Q77.59 6.17 78.13 6.10L78.13 6.10Q78.65 6.03 79.27 6.03Q79.88 6.03 80.37 6.06L80.37 6.06L80.37 5.84Q80.37 5.24 80.11 4.93Q79.84 4.63 79.44 4.54Q79.04 4.45 78.57 4.52Q78.09 4.59 77.66 4.72Q77.22 4.86 76.90 5.00Q76.57 5.15 76.48 5.22L76.48 5.22L76.48 3.81Q76.50 3.79 76.73 3.69Q76.97 3.58 77.34 3.46Q77.70 3.33 78.16 3.23Q78.61 3.12 79.07 3.12ZM79.97 8.68L79.97 8.68Q80.21 8.37 80.28 7.99Q80.36 7.62 80.36 7.20L80.36 7.20L79.55 7.20Q79.23 7.20 78.86 7.24Q78.50 7.28 78.19 7.41Q77.88 7.53 77.67 7.78Q77.46 8.02 77.46 8.44L77.46 8.44Q77.46 8.90 77.81 9.11Q78.15 9.32 78.65 9.32L78.65 9.32Q79.09 9.32 79.42 9.15Q79.74 8.97 79.97 8.68ZM89.00 3.29L90.47 3.29L90.47 9.63Q90.47 10.32 90.25 10.93Q90.03 11.54 89.57 12.01Q89.10 12.47 88.37 12.76Q87.64 13.05 86.62 13.06L86.62 13.06Q86.07 13.06 85.62 12.98Q85.18 12.91 84.85 12.81L84.85 12.81Q84.48 12.70 84.17 12.54L84.17 12.54L84.31 11.05Q84.62 11.20 84.98 11.33L84.98 11.33Q85.30 11.44 85.72 11.52Q86.13 11.59 86.62 11.59L86.62 11.59Q87.21 11.59 87.58 11.43Q87.95 11.27 88.17 11.03Q88.38 10.78 88.48 10.50Q88.58 10.22 88.60 9.97Q88.62 9.73 88.61 9.56Q88.59 9.39 88.59 9.39L88.59 9.39Q88.59 9.39 88.48 9.56Q88.37 9.73 88.12 9.94Q87.86 10.15 87.46 10.32Q87.05 10.50 86.46 10.50L86.46 10.50Q85.83 10.50 85.27 10.31Q84.71 10.12 84.29 9.68Q83.87 9.24 83.63 8.53Q83.38 7.81 83.38 6.78L83.38 6.78Q83.38 5.74 83.69 5.04Q84.00 4.34 84.46 3.91Q84.92 3.49 85.46 3.30Q86.00 3.12 86.46 3.12L86.46 3.12Q87.01 3.12 87.42 3.28Q87.82 3.44 88.08 3.64Q88.34 3.84 88.47 4.00Q88.61 4.16 88.61 4.16L88.61 4.16L89.00 3.29ZM88.59 6.82L88.59 6.82Q88.59 5.68 88.14 5.13Q87.70 4.58 86.97 4.58L86.97 4.58Q86.24 4.58 85.79 5.13Q85.34 5.68 85.34 6.82L85.34 6.82Q85.34 7.95 85.79 8.50Q86.24 9.04 86.97 9.04L86.97 9.04Q87.70 9.04 88.14 8.50Q88.59 7.95 88.59 6.82ZM95.89 10.65L95.89 10.65Q94.72 10.65 93.97 10.35Q93.21 10.04 92.76 9.52Q92.30 9.00 92.12 8.32Q91.94 7.64 91.94 6.89L91.94 6.89Q91.94 6.22 92.12 5.54Q92.30 4.87 92.70 4.33Q93.10 3.79 93.74 3.46Q94.39 3.12 95.31 3.12L95.31 3.12Q96.29 3.12 96.94 3.46Q97.59 3.79 97.99 4.33Q98.38 4.87 98.54 5.54Q98.70 6.22 98.70 6.89L98.70 6.89L98.70 7.52L93.74 7.52Q93.74 8.27 94.28 8.76Q94.82 9.25 95.76 9.25L95.76 9.25Q96.29 9.25 96.74 9.14Q97.19 9.03 97.51 8.89L97.51 8.89Q97.87 8.74 98.18 8.53L98.18 8.53L98.18 10.09Q98.18 10.11 98.00 10.19Q97.82 10.28 97.51 10.38Q97.20 10.49 96.78 10.57Q96.36 10.65 95.89 10.65ZM93.74 6.19L96.92 6.19Q96.92 5.95 96.86 5.66Q96.80 5.38 96.62 5.12Q96.45 4.87 96.13 4.70Q95.82 4.54 95.31 4.54L95.31 4.54Q94.88 4.54 94.58 4.70Q94.28 4.87 94.09 5.12Q93.91 5.38 93.83 5.66Q93.74 5.95 93.74 6.19L93.74 6.19ZM104.61 3.18L104.61 5.10Q104.29 5.03 104.03 5.02Q103.77 5.01 103.54 5.03L103.54 5.03Q103.10 5.05 102.81 5.22Q102.52 5.39 102.37 5.66Q102.21 5.94 102.16 6.28Q102.10 6.62 102.10 6.99L102.10 6.99L102.10 10.50L100.21 10.50L100.21 3.36L101.60 3.36L101.89 4.93Q101.89 4.93 101.93 4.77Q101.96 4.61 102.07 4.38Q102.17 4.14 102.37 3.88Q102.56 3.63 102.87 3.43Q103.17 3.23 103.59 3.15Q104.02 3.07 104.61 3.18L104.61 3.18Z"></path></g><defs data-v-423bf9ae=""><linearGradient data-v-423bf9ae="" gradientTransform="rotate(25)" id="741a00da-05bb-49c0-9871-1b9fd25023c0" x1="0%" y1="0%" x2="100%" y2="0%"><stop data-v-423bf9ae="" offset="0%" style="stop-color: rgb(86, 63, 51); stop-opacity: 1;"></stop><stop data-v-423bf9ae="" offset="100%" style="stop-color: rgb(163, 161, 161); stop-opacity: 1;"></stop></linearGradient></defs><g data-v-423bf9ae="" id="e2885f72-834f-4833-a500-f2822f5236bc" transform="matrix(1.2857142857142858,0,0,1.2857142857142858,-16.319073268345434,-16.85714285714286)" stroke="none" fill="url(#741a00da-05bb-49c0-9871-1b9fd25023c0)"><path d="M85.995 47.667l-33.352-33.01A3.996 3.996 0 0049.83 13.5h-.022a4.006 4.006 0 00-2.825 1.189l-32.595 33.01a4 4 0 105.694 5.621l4.169-4.222V79.5a4 4 0 004 4h14.688a4 4 0 004-4v-16h6.125v16a4 4 0 004 4H71.75a4 4 0 004-4V48.782l4.617 4.571a3.998 3.998 0 005.657-.029 4 4 0 00-.029-5.657zM67.75 75.5h-6.688v-16a4 4 0 00-4-4H42.938a4 4 0 00-4 4v16H32.25V40.997L49.862 23.16 67.75 40.864V75.5z"></path></g><!----></svg>